<svg width="48" height="46" viewBox="0 0 48 46" fill="none" xmlns="http://www.w3.org/2000/svg">
<path d="M24 1.61804L29.1373 17.4291L29.2496 17.7746H29.6129H46.2376L32.7879 27.5463L32.494 27.7599L32.6063 28.1054L37.7436 43.9164L24.2939 34.1446L24 33.9311L23.7061 34.1446L10.2564 43.9164L15.3937 28.1054L15.506 27.7599L15.2121 27.5463L1.76243 17.7746H18.3871H18.7504L18.8627 17.4291L24 1.61804Z" fill="#C4C4C4"/>
<path d="M24 1.61804L29.1373 17.4291L29.2496 17.7746H29.6129H46.2376L32.7879 27.5463L32.494 27.7599L32.6063 28.1054L37.7436 43.9164L24.2939 34.1446L24 33.9311L23.7061 34.1446L10.2564 43.9164L15.3937 28.1054L15.506 27.7599L15.2121 27.5463L1.76243 17.7746H18.3871H18.7504L18.8627 17.4291L24 1.61804Z" fill="url(#paint0_linear)"/>
<path d="M24 1.61804L29.1373 17.4291L29.2496 17.7746H29.6129H46.2376L32.7879 27.5463L32.494 27.7599L32.6063 28.1054L37.7436 43.9164L24.2939 34.1446L24 33.9311L23.7061 34.1446L10.2564 43.9164L15.3937 28.1054L15.506 27.7599L15.2121 27.5463L1.76243 17.7746H18.3871H18.7504L18.8627 17.4291L24 1.61804Z" stroke="#CCC400"/>
<defs>
<linearGradient id="paint0_linear" x1="24" y1="0" x2="24" y2="50" gradientUnits="userSpaceOnUse">
<stop stop-color="white"/>
<stop offset="1" stop-color="#DBFF00" stop-opacity="0"/>
</linearGradient>
</defs>
</svg>
